<?xml version="1.0" encoding="UTF-8"?><svg xmlns="http://www.w3.org/2000/svg" xmlns:xlink="http://www.w3.org/1999/xlink" fill-opacity="1" color-rendering="auto" color-interpolation="auto" text-rendering="auto" stroke="black" stroke-linecap="square" width="274" stroke-miterlimit="10" shape-rendering="auto" stroke-opacity="1" fill="black" stroke-dasharray="none" font-weight="normal" stroke-width="1" height="420" font-family="'Dialog'" font-style="normal" stroke-linejoin="miter" font-size="12px" stroke-dashoffset="0" image-rendering="auto">
  <!--Generated by ySVG 2.5-->
  <defs id="genericDefs"/>
  <g>
    <defs id="defs1">
      <linearGradient x1="990.9597" gradientUnits="userSpaceOnUse" x2="1050.9596" y1="1015.8069" y2="1055.8069" id="linearGradient1" spreadMethod="reflect">
        <stop stop-opacity="1" stop-color="silver" offset="0%"/>
        <stop stop-opacity="1" stop-color="silver" offset="100%"/>
      </linearGradient>
      <linearGradient x1="1069.5399" gradientUnits="userSpaceOnUse" x2="1142.124" y1="1015.8069" y2="1055.8069" id="linearGradient2" spreadMethod="reflect">
        <stop stop-opacity="1" stop-color="silver" offset="0%"/>
        <stop stop-opacity="1" stop-color="silver" offset="100%"/>
      </linearGradient>
      <linearGradient x1="1160.7042" gradientUnits="userSpaceOnUse" x2="1233.2883" y1="1015.8069" y2="1055.8069" id="linearGradient3" spreadMethod="reflect">
        <stop stop-opacity="1" stop-color="silver" offset="0%"/>
        <stop stop-opacity="1" stop-color="silver" offset="100%"/>
      </linearGradient>
      <clipPath clipPathUnits="userSpaceOnUse" id="clipPath1">
        <path d="M0 0 L274 0 L274 420 L0 420 L0 0 Z"/>
      </clipPath>
      <clipPath clipPathUnits="userSpaceOnUse" id="clipPath2">
        <path d="M975 651 L1249 651 L1249 1071 L975 1071 L975 651 Z"/>
      </clipPath>
    </defs>
    <g fill="white" text-rendering="geometricPrecision" shape-rendering="geometricPrecision" transform="translate(-975,-651)" stroke="white">
      <rect x="975" width="274" height="420" y="651" clip-path="url(#clipPath2)" stroke="none"/>
    </g>
    <g fill="rgb(238,238,238)" text-rendering="geometricPrecision" shape-rendering="geometricPrecision" transform="matrix(1,0,0,1,-975,-651)" stroke="rgb(238,238,238)">
      <rect x="998.1676" width="215.3287" height="116.2412" y="666.2197" clip-path="url(#clipPath2)" stroke="none"/>
    </g>
    <g text-rendering="geometricPrecision" stroke-miterlimit="1.45" stroke-dasharray="6,2" shape-rendering="geometricPrecision" transform="matrix(1,0,0,1,-975,-651)" stroke-linecap="butt">
      <rect fill="none" x="998.1676" width="215.3287" height="116.2412" y="666.2197" clip-path="url(#clipPath2)"/>
      <text x="1004.1676" y="683.4404" clip-path="url(#clipPath2)" font-family="'CMU Serif'" stroke-dasharray="none" stroke="none" xml:space="preserve">Environments</text>
    </g>
    <g fill="rgb(238,238,238)" text-rendering="geometricPrecision" shape-rendering="geometricPrecision" transform="matrix(1,0,0,1,-975,-651)" stroke="rgb(238,238,238)">
      <rect x="998.1676" width="215.3287" height="197.3005" y="801.4105" clip-path="url(#clipPath2)" stroke="none"/>
    </g>
    <g text-rendering="geometricPrecision" stroke-miterlimit="1.45" stroke-dasharray="6,2" shape-rendering="geometricPrecision" transform="matrix(1,0,0,1,-975,-651)" stroke-linecap="butt">
      <rect fill="none" x="998.1676" width="215.3287" height="197.3005" y="801.4105" clip-path="url(#clipPath2)"/>
      <text x="1004.1676" y="818.6312" clip-path="url(#clipPath2)" font-family="'CMU Serif'" stroke-dasharray="none" stroke="none" xml:space="preserve">ML-IO</text>
    </g>
    <g fill="silver" text-rendering="geometricPrecision" shape-rendering="geometricPrecision" transform="matrix(1,0,0,1,-975,-651)" stroke="silver">
      <rect x="1035.3319" width="141" height="27" y="950.5202" clip-path="url(#clipPath2)" stroke="none"/>
    </g>
    <g text-rendering="geometricPrecision" stroke-miterlimit="1.45" shape-rendering="geometricPrecision" transform="matrix(1,0,0,1,-975,-651)" stroke-linecap="butt">
      <rect fill="none" x="1035.3319" width="141" height="27" y="950.5202" clip-path="url(#clipPath2)"/>
      <text x="1074.912" xml:space="preserve" y="967.3952" clip-path="url(#clipPath2)" font-family="'CMU Serif'" stroke="none">Data Stores</text>
    </g>
    <g fill="silver" text-rendering="geometricPrecision" shape-rendering="geometricPrecision" transform="matrix(1,0,0,1,-975,-651)" stroke="silver">
      <rect x="1035.3319" width="141" height="27" y="893.5202" clip-path="url(#clipPath2)" stroke="none"/>
    </g>
    <g text-rendering="geometricPrecision" stroke-miterlimit="1.45" shape-rendering="geometricPrecision" transform="matrix(1,0,0,1,-975,-651)" stroke-linecap="butt">
      <rect fill="none" x="1035.3319" width="141" height="27" y="893.5202" clip-path="url(#clipPath2)"/>
      <text x="1046.0458" xml:space="preserve" y="910.3952" clip-path="url(#clipPath2)" font-family="'CMU Serif'" stroke="none">Input/Output Streams</text>
    </g>
    <g fill="silver" text-rendering="geometricPrecision" shape-rendering="geometricPrecision" transform="matrix(1,0,0,1,-975,-651)" stroke="silver">
      <rect x="1035.3319" width="141" height="27" y="836.5202" clip-path="url(#clipPath2)" stroke="none"/>
    </g>
    <g text-rendering="geometricPrecision" stroke-miterlimit="1.45" shape-rendering="geometricPrecision" transform="matrix(1,0,0,1,-975,-651)" stroke-linecap="butt">
      <rect fill="none" x="1035.3319" width="141" height="27" y="836.5202" clip-path="url(#clipPath2)"/>
      <text x="1070.16" xml:space="preserve" y="853.3952" clip-path="url(#clipPath2)" font-family="'CMU Serif'" stroke="none">Data Readers</text>
    </g>
    <g fill="url(#linearGradient1)" text-rendering="geometricPrecision" shape-rendering="geometricPrecision" transform="matrix(1,0,0,1,-975,-651)" stroke="url(#linearGradient1)">
      <path d="M990.9597 1023.8069 C992.7596 1015.8069 1049.1597 1015.8069 1050.9596 1023.8069 L1050.9596 1047.8069 C1049.1597 1055.8069 992.7596 1055.8069 990.9597 1047.8069 Z" stroke="none" clip-path="url(#clipPath2)"/>
    </g>
    <g text-rendering="geometricPrecision" stroke-miterlimit="1.45" shape-rendering="geometricPrecision" transform="matrix(1,0,0,1,-975,-651)" stroke-linecap="butt">
      <path fill="none" d="M990.9597 1023.8069 C992.7596 1015.8069 1049.1597 1015.8069 1050.9596 1023.8069 L1050.9596 1047.8069 C1049.1597 1055.8069 992.7596 1055.8069 990.9597 1047.8069 Z" clip-path="url(#clipPath2)"/>
      <path fill="none" d="M1050.9596 1023.8069 C1049.1597 1031.8069 992.7596 1031.8069 990.9597 1023.8069" clip-path="url(#clipPath2)"/>
      <text x="997.7687" font-size="10px" y="1046.0813" clip-path="url(#clipPath2)" font-family="'CMU Serif'" stroke="none" xml:space="preserve">Local Disk</text>
    </g>
    <g fill="url(#linearGradient2)" text-rendering="geometricPrecision" shape-rendering="geometricPrecision" transform="matrix(1,0,0,1,-975,-651)" stroke="url(#linearGradient2)">
      <path d="M1078.6129 1037.007 C1069.5399 1025.8069 1078.6129 1015.8069 1093.4927 1023.007 C1093.4927 1015.8069 1118.1713 1015.8069 1118.1713 1023.007 C1133.0509 1015.8069 1142.124 1025.8069 1133.0509 1034.6069 C1142.124 1045.8069 1133.0509 1055.8069 1121.8004 1048.6069 C1118.1713 1055.8069 1093.4927 1055.8069 1097.1218 1048.6069 C1078.6129 1055.8069 1069.5399 1045.8069 1078.6129 1037.007 Z" stroke="none" clip-path="url(#clipPath2)"/>
    </g>
    <g text-rendering="geometricPrecision" stroke-miterlimit="1.45" shape-rendering="geometricPrecision" transform="matrix(1,0,0,1,-975,-651)" stroke-linecap="butt">
      <path fill="none" d="M1078.6129 1037.007 C1069.5399 1025.8069 1078.6129 1015.8069 1093.4927 1023.007 C1093.4927 1015.8069 1118.1713 1015.8069 1118.1713 1023.007 C1133.0509 1015.8069 1142.124 1025.8069 1133.0509 1034.6069 C1142.124 1045.8069 1133.0509 1055.8069 1121.8004 1048.6069 C1118.1713 1055.8069 1093.4927 1055.8069 1097.1218 1048.6069 C1078.6129 1055.8069 1069.5399 1045.8069 1078.6129 1037.007 Z" clip-path="url(#clipPath2)"/>
      <text x="1100.5585" font-size="10px" y="1038.6194" clip-path="url(#clipPath2)" font-family="'CMU Serif'" stroke="none" xml:space="preserve">S3</text>
    </g>
    <g fill="url(#linearGradient3)" text-rendering="geometricPrecision" shape-rendering="geometricPrecision" transform="matrix(1,0,0,1,-975,-651)" stroke="url(#linearGradient3)">
      <path d="M1169.7772 1037.007 C1160.7042 1025.8069 1169.7772 1015.8069 1184.657 1023.007 C1184.657 1015.8069 1209.3356 1015.8069 1209.3356 1023.007 C1224.2153 1015.8069 1233.2883 1025.8069 1224.2153 1034.6069 C1233.2883 1045.8069 1224.2153 1055.8069 1212.9647 1048.6069 C1209.3356 1055.8069 1184.657 1055.8069 1188.2861 1048.6069 C1169.7772 1055.8069 1160.7042 1045.8069 1169.7772 1037.007 Z" stroke="none" clip-path="url(#clipPath2)"/>
    </g>
    <g text-rendering="geometricPrecision" stroke-miterlimit="1.45" shape-rendering="geometricPrecision" transform="matrix(1,0,0,1,-975,-651)" stroke-linecap="butt">
      <path fill="none" d="M1169.7772 1037.007 C1160.7042 1025.8069 1169.7772 1015.8069 1184.657 1023.007 C1184.657 1015.8069 1209.3356 1015.8069 1209.3356 1023.007 C1224.2153 1015.8069 1233.2883 1025.8069 1224.2153 1034.6069 C1233.2883 1045.8069 1224.2153 1055.8069 1212.9647 1048.6069 C1209.3356 1055.8069 1184.657 1055.8069 1188.2861 1048.6069 C1169.7772 1055.8069 1160.7042 1045.8069 1169.7772 1037.007 Z" clip-path="url(#clipPath2)"/>
      <text x="1173.1193" font-size="10px" y="1038.6194" clip-path="url(#clipPath2)" font-family="'CMU Serif'" stroke="none" xml:space="preserve">SageMaker</text>
    </g>
    <g fill="silver" text-rendering="geometricPrecision" shape-rendering="geometricPrecision" transform="matrix(1,0,0,1,-975,-651)" stroke="silver">
      <rect x="1145.1396" width="60" height="27" y="703.6001" clip-path="url(#clipPath2)" stroke="none"/>
    </g>
    <g text-rendering="geometricPrecision" stroke-miterlimit="1.45" shape-rendering="geometricPrecision" transform="matrix(1,0,0,1,-975,-651)" stroke-linecap="butt">
      <rect fill="none" x="1145.1396" width="60" height="27" y="703.6001" clip-path="url(#clipPath2)"/>
      <text x="1158.9043" font-size="10px" y="719.9127" clip-path="url(#clipPath2)" font-family="'CMU Serif'" stroke="none" xml:space="preserve">MXNet</text>
    </g>
    <g fill="silver" text-rendering="geometricPrecision" shape-rendering="geometricPrecision" transform="matrix(1,0,0,1,-975,-651)" stroke="silver">
      <rect x="1075.8319" width="60" height="27" y="738.698" clip-path="url(#clipPath2)" stroke="none"/>
    </g>
    <g text-rendering="geometricPrecision" stroke-miterlimit="1.45" shape-rendering="geometricPrecision" transform="matrix(1,0,0,1,-975,-651)" stroke-linecap="butt">
      <rect fill="none" x="1075.8319" width="60" height="27" y="738.698" clip-path="url(#clipPath2)"/>
      <text x="1086.745" font-size="10px" y="755.0105" clip-path="url(#clipPath2)" font-family="'CMU Serif'" stroke="none" xml:space="preserve">PyTorch</text>
    </g>
    <g fill="silver" text-rendering="geometricPrecision" shape-rendering="geometricPrecision" transform="matrix(1,0,0,1,-975,-651)" stroke="silver">
      <rect x="1006.5242" width="60" height="27" y="703.6001" clip-path="url(#clipPath2)" stroke="none"/>
    </g>
    <g text-rendering="geometricPrecision" stroke-miterlimit="1.45" shape-rendering="geometricPrecision" transform="matrix(1,0,0,1,-975,-651)" stroke-linecap="butt">
      <rect fill="none" x="1006.5242" width="60" height="27" y="703.6001" clip-path="url(#clipPath2)"/>
      <text x="1019.8055" font-size="10px" y="719.9127" clip-path="url(#clipPath2)" font-family="'CMU Serif'" stroke="none" xml:space="preserve">NumPy</text>
    </g>
    <g fill="silver" text-rendering="geometricPrecision" shape-rendering="geometricPrecision" transform="matrix(1,0,0,1,-975,-651)" stroke="silver">
      <rect x="1075.8319" width="60" height="27" y="703.6001" clip-path="url(#clipPath2)" stroke="none"/>
    </g>
    <g text-rendering="geometricPrecision" stroke-miterlimit="1.45" shape-rendering="geometricPrecision" transform="matrix(1,0,0,1,-975,-651)" stroke-linecap="butt">
      <rect fill="none" x="1075.8319" width="60" height="27" y="703.6001" clip-path="url(#clipPath2)"/>
      <text x="1093.4222" font-size="10px" y="719.9127" clip-path="url(#clipPath2)" font-family="'CMU Serif'" stroke="none" xml:space="preserve">SciPy</text>
    </g>
    <g fill="silver" text-rendering="geometricPrecision" shape-rendering="geometricPrecision" transform="matrix(1,0,0,1,-975,-651)" stroke="silver">
      <rect x="1145.1396" width="60" height="27" y="738.698" clip-path="url(#clipPath2)" stroke="none"/>
    </g>
    <g text-rendering="geometricPrecision" stroke-miterlimit="1.45" shape-rendering="geometricPrecision" transform="matrix(1,0,0,1,-975,-651)" stroke-linecap="butt">
      <rect fill="none" x="1145.1396" width="60" height="27" y="738.698" clip-path="url(#clipPath2)"/>
      <text x="1161.375" font-size="10px" y="755.0105" clip-path="url(#clipPath2)" font-family="'CMU Serif'" stroke="none" xml:space="preserve">Arrow</text>
    </g>
    <g fill="silver" text-rendering="geometricPrecision" shape-rendering="geometricPrecision" transform="matrix(1,0,0,1,-975,-651)" stroke="silver">
      <rect x="1006.5242" width="60" height="27" y="738.698" clip-path="url(#clipPath2)" stroke="none"/>
    </g>
    <g text-rendering="geometricPrecision" stroke-miterlimit="1.45" shape-rendering="geometricPrecision" transform="matrix(1,0,0,1,-975,-651)" stroke-linecap="butt">
      <rect fill="none" x="1006.5242" width="60" height="27" y="738.698" clip-path="url(#clipPath2)"/>
      <text x="1010.7503" font-size="10px" y="755.0105" clip-path="url(#clipPath2)" font-family="'CMU Serif'" stroke="none" xml:space="preserve">TensorFlow</text>
      <path fill="none" d="M1105.8319 950.5202 L1105.8319 928.5202" clip-path="url(#clipPath2)"/>
      <path d="M1105.8319 920.5202 L1100.8319 932.5202 L1105.8319 929.5202 L1110.8319 932.5202 Z" clip-path="url(#clipPath2)" stroke="none"/>
      <path fill="none" d="M1105.8319 893.5202 L1105.8319 871.5202" clip-path="url(#clipPath2)"/>
      <path d="M1105.8319 863.5202 L1100.8319 875.5202 L1105.8319 872.5202 L1110.8319 875.5202 Z" clip-path="url(#clipPath2)" stroke="none"/>
      <text x="1112.9454" font-size="10px" y="883.1852" clip-path="url(#clipPath2)" font-family="'CMU Serif'" stroke="none" xml:space="preserve">bit stream</text>
      <path fill="none" d="M1105.8319 836.5202 L1105.8319 790.4609" clip-path="url(#clipPath2)"/>
      <path d="M1105.8319 782.4609 L1100.8319 794.4609 L1105.8319 791.4609 L1110.8319 794.4609 Z" clip-path="url(#clipPath2)" stroke="none"/>
      <text x="1112.2871" font-size="10px" y="822.8125" clip-path="url(#clipPath2)" font-family="'CMU Serif'" stroke="none" xml:space="preserve">example/tensors</text>
      <path fill="none" d="M1040.5822 1019.2098 L1083.7629 982.6865" clip-path="url(#clipPath2)"/>
      <path d="M1089.8711 977.5202 L1077.48 981.4521 L1082.9994 983.3323 L1083.9379 989.0872 Z" clip-path="url(#clipPath2)" stroke="none"/>
      <path fill="none" d="M1105.8319 1017.5906 L1105.8319 978.1452 L1105.8319 977.5202" clip-path="url(#clipPath2)"/>
      <path d="M1105.8319 977.5202 L1100.8319 989.5202 L1105.8319 986.5202 L1110.8319 989.5202 Z" clip-path="url(#clipPath2)" stroke="none"/>
      <path fill="none" d="M1177.9221 1020.7871 L1129.2612 982.4695" clip-path="url(#clipPath2)"/>
      <path d="M1122.976 977.5202 L1129.3105 988.8724 L1130.0469 983.0881 L1135.4972 981.0158 Z" clip-path="url(#clipPath2)" stroke="none"/>
    </g>
  </g>
</svg>
